<?xml version="1.0" encoding="utf-8"?>
<!-- Generator: Adobe Illustrator 23.0.3, SVG Export Plug-In . SVG Version: 6.00 Build 0)  -->
<svg version="1.1" id="Layer_1" xmlns="http://www.w3.org/2000/svg" xmlns:xlink="http://www.w3.org/1999/xlink" x="0px" y="0px"
	 viewBox="0 0 2000 2000" style="enable-background:new 0 0 2000 2000;" xml:space="preserve">
<style type="text/css">
	.st0{fill:#0C142A;}
	.st1{fill:#FFFFFF;}
	.st2{opacity:0.2;fill:#0C142A;enable-background:new    ;}
</style>
<g>
	<g>
		<path class="st0" d="M1000.23,728.74l-73.26,143.93h44.39L1000,816.4l28.25,56.27h44.23L1000.23,728.74z M1007.7,785.4l-9.53,7.98
			l-3.11-13.68l-16.11,17.92l21.52-42.26l24.44,48.69L1007.7,785.4z"/>
		<polygon class="st1" points="1024.9,804.04 1007.7,785.4 998.17,793.38 995.05,779.7 978.94,797.62 1000.46,755.35 		"/>
		<path class="st0" d="M1028.25,980.46l-28.25,56.27l-28.64-56.27h-44.39l73.26,143.93l72.26-143.93L1028.25,980.46L1028.25,980.46z
			 M1000.46,1097.77l-21.52-42.26l16.11,17.92l3.11-13.68l9.53,7.98l17.2-18.64L1000.46,1097.77z"/>
		<polygon class="st1" points="1024.9,1049.08 1000.46,1097.77 978.94,1055.51 995.05,1073.43 998.17,1059.75 1007.7,1067.73 		"/>
		<polygon class="st1" points="1114.32,887.56 887.36,925.98 885.68,965.57 1112.66,926.54 		"/>
	</g>
	<ellipse class="st2" cx="1000" cy="1136.65" rx="93.78" ry="7.83"/>
</g>
<g>
	<path class="st1" d="M645.2,1183.84h17.04v10.05H645.2h-3.21v3.16v62.63h-10.15v-62.63v-3.16h-3.21h-17.04v-10.05h17.04H645.2z"/>
	<path class="st1" d="M689.92,1183.84v29.73v3.16h3.16h27.49h3.16v-3.16v-29.73h10.1v75.84h-10.1v-29.73v-3.16h-3.16h-27.49h-3.16
		v3.16v29.73h-10.1v-75.84H689.92z"/>
	<path class="st1" d="M797.63,1183.68v10.1h-29.84h-3.16v3.16v16.58v3.21h3.16h21.57v10.1h-21.57h-3.16v3.16v16.58v3.21h3.16h29.84
		v10.1h-29.84h-13.31v-76.2L797.63,1183.68L797.63,1183.68z"/>
	<path class="st1" d="M864.12,1183.84l17.39,47.48l15.25-44.88l15.2,44.88l17.34-47.48h10.97l-28.26,77.12l-15.45-46.26
		l-15.15,46.16l-28.2-77.02H864.12z"/>
	<path class="st1" d="M1001,1183.68v10.1h-29.84H968v3.16v16.58v3.21h3.16h21.57v10.1h-21.57H968v3.16v16.58v3.21h3.16H1001v10.1
		h-29.84h-13.31v-76.2L1001,1183.68L1001,1183.68z"/>
	<path class="st1" d="M1032.61,1183.84h5.71c2.58,0,5.12,0.51,7.6,1.53c2.45,1.05,4.59,2.52,6.43,4.39c1.8,1.84,3.2,3.86,4.18,6.07
		c0.95,2.28,1.43,4.73,1.43,7.34c0,1.26-0.26,2.79-0.77,4.59c-0.54,1.84-1.29,3.59-2.24,5.25l-1.68,3.01l3.16,1.43
		c1.05,0.51,2.11,1.09,3.16,1.73c0.85,0.58,1.6,1.17,2.24,1.79c2.11,2.21,3.72,4.68,4.85,7.4c1.12,2.65,1.68,5.53,1.68,8.62
		c0,3.13-0.56,6.02-1.68,8.67c-1.12,2.75-2.74,5.2-4.85,7.34s-4.56,3.81-7.34,5c-2.75,1.12-5.61,1.68-8.57,1.68h-10.81h-3.26h-2.6
		h-10.66v-75.84L1032.61,1183.84L1032.61,1183.84z M1028.63,1215.1l3.32-0.15c1.22-0.07,2.89-0.17,5-0.31
		c0.48-0.03,0.9-0.05,1.28-0.05l0.2-0.05c1.6-0.2,2.84-0.51,3.72-0.92c1.09-0.51,2.19-1.33,3.32-2.45c0.95-1.02,1.68-2.14,2.19-3.37
		c0.51-1.22,0.77-2.55,0.77-3.98c0-1.39-0.26-2.7-0.77-3.93c-0.51-1.19-1.24-2.31-2.19-3.37c-0.92-0.88-2.01-1.61-3.26-2.19
		c-1.22-0.51-2.52-0.77-3.88-0.77h-5.71h-0.77h-3.21v3.16v15.05L1028.63,1215.1L1028.63,1215.1z M1028.63,1249.99h3.21h3.26h10.81
		c1.6,0,3.21-0.32,4.85-0.97c1.63-0.68,3.01-1.61,4.13-2.81c1.12-1.09,2.06-2.5,2.81-4.23c0.65-1.67,0.97-3.33,0.97-5
		s-0.32-3.32-0.97-4.95c-0.68-1.63-1.61-3.06-2.81-4.28c-1.26-1.22-2.6-2.16-4.03-2.81c-1.56-0.75-3.14-1.17-4.74-1.28
		c-1.73-0.1-3.39-0.14-4.97-0.13c-1.58,0.02-3.17,0.04-4.77,0.08c-0.78,0-1.56,0.01-2.32,0.03c-0.77,0.02-1.5,0.03-2.22,0.03h-3.21
		v3.16v19.94L1028.63,1249.99L1028.63,1249.99z"/>
	<path class="st1" d="M1189.12,1259.68h-10.86l-5.61-12.5h-16.14h-16.09l-5.61,12.5h-10.86l32.59-76.56L1189.12,1259.68z
		 M1156.5,1239.02h12.42c-2.07-4.76-4.14-9.88-6.2-15.35c-2.06-5.47-4.11-10.61-6.15-15.4c-2.07,4.79-4.16,9.93-6.25,15.4
		s-4.16,10.59-6.2,15.35H1156.5z"/>
	<path class="st1" d="M1206.71,1238.21v-28.77v-25.6h13.31h12.34c3.57,0,6.85,0.63,9.84,1.89c2.96,1.22,5.73,3.11,8.31,5.66
		c2.52,2.48,4.42,5.24,5.71,8.26c1.22,3.03,1.84,6.31,1.84,9.84c0,3.57-0.61,6.85-1.84,9.84c-1.26,2.96-3.14,5.7-5.66,8.21
		c-2.55,2.52-5.34,4.4-8.36,5.66c-3.03,1.22-6.31,1.84-9.84,1.84h-12.34h-3.16v3.16v21.47h-10.15V1238.21z M1216.86,1225h3.16
		l12.34,0.05c2.18,0,4.16-0.37,5.97-1.12c1.77-0.71,3.45-1.85,5.05-3.42c1.46-1.53,2.58-3.21,3.37-5.05
		c0.78-1.73,1.17-3.72,1.17-5.97c0-2.18-0.39-4.15-1.17-5.92c-0.68-1.7-1.8-3.38-3.37-5.05c-1.5-1.53-3.16-2.69-5-3.47
		s-3.84-1.17-6.02-1.17h-12.34h-3.16v3.16v12.39v12.39V1225z"/>
	<path class="st1" d="M1318.8,1183.68v10.1h-29.84h-3.16v3.16v16.58v3.21h3.16h21.57v10.1h-21.57h-3.16v3.16v16.58v3.21h3.16h29.84
		v10.1h-29.84h-13.31v-76.2L1318.8,1183.68L1318.8,1183.68z"/>
	<path class="st1" d="M1345.01,1183.84l13.11,22.9l2.75,4.79l2.75-4.79l13.16-22.9h11.63l-20.81,36.31l-0.92,1.58l0.92,1.58
		l20.81,36.37h-11.63l-13.16-22.9l-2.75-4.85l-2.75,4.85l-13.16,22.95l-11.63-0.05l20.76-36.42l0.92-1.58l-0.92-1.53l-20.71-36.31
		L1345.01,1183.84L1345.01,1183.84z"/>
</g>
</svg>
